HIERARCHY
ROOT hip
{
	OFFSET 0.000000 0.000000 0.000000 
	CHANNELS 6 Xposition Yposition Zposition Xrotation Zrotation Yrotation
	JOINT abdomen
	{
		OFFSET 0.000000 3.402643 0.000000 
		CHANNELS 3 Xrotation Zrotation Yrotation
		JOINT chest
		{
			OFFSET 0.000000 8.438565 -0.680529 
			CHANNELS 3 Xrotation Zrotation Yrotation
			JOINT neck
			{
				OFFSET 0.000000 10.207942 -0.272212 
				CHANNELS 3 Xrotation Zrotation Yrotation
				JOINT head
				{
					OFFSET 0.000000 3.130431 0.000000 
					CHANNELS 3 Xrotation Zrotation Yrotation
					End Site
					{
						OFFSET 0.000000 3.130435 0.000000 
					}
				}
			}
			JOINT lCollar
			{
				OFFSET 3.470700 6.669187 -0.816635 
				CHANNELS 3 Yrotation Zrotation Xrotation
				JOINT lShldr
				{
					OFFSET 3.198488 0.000000 0.000000 
					CHANNELS 3 Zrotation Yrotation Xrotation
					JOINT lForeArm
					{
						OFFSET 10.139888 0.000000 0.000000 
						CHANNELS 3 Yrotation Zrotation Xrotation
						JOINT lHand
						{
							OFFSET 8.370511 0.000000 0.000000 
							CHANNELS 3 Zrotation Yrotation Xrotation
							End Site
							{
								OFFSET 4.083176 0.000000 0.000000 
							}
						}
					}
				}
			}
			JOINT rCollar
			{
				OFFSET -3.470700 6.669187 -0.816635 
				CHANNELS 3 Yrotation Zrotation Xrotation
				JOINT rShldr
				{
					OFFSET -3.198488 0.000000 0.000000 
					CHANNELS 3 Zrotation Yrotation Xrotation
					JOINT rForeArm
					{
						OFFSET -10.139888 0.000000 0.000000 
						CHANNELS 3 Yrotation Zrotation Xrotation
						JOINT rHand
						{
							OFFSET -8.370511 0.000000 0.000000 
							CHANNELS 3 Zrotation Yrotation Xrotation
							End Site
							{
								OFFSET -4.083176 0.000000 0.000000 
							}
						}
					}
				}
			}
		}
	}
	JOINT lThigh
	{
		OFFSET 5.308129 -1.633274 1.361059 
		CHANNELS 3 Xrotation Zrotation Yrotation
		JOINT lShin
		{
			OFFSET -2.041588 -20.007561 0.000000 
			CHANNELS 3 Xrotation Zrotation Yrotation
			JOINT lFoot
			{
				OFFSET 0.000000 -19.190928 -1.224953 
				CHANNELS 3 Xrotation Yrotation Zrotation
				End Site
				{
					OFFSET 0.000000 -2.449906 4.627600 
				}
			}
		}
	}
	JOINT rThigh
	{
		OFFSET -5.308129 -1.633274 1.361059 
		CHANNELS 3 Xrotation Zrotation Yrotation
		JOINT rShin
		{
			OFFSET 2.041588 -20.007561 0.000000 
			CHANNELS 3 Xrotation Zrotation Yrotation
			JOINT rFoot
			{
				OFFSET 0.000000 -19.190928 -1.224953 
				CHANNELS 3 Xrotation Yrotation Zrotation
				End Site
				{
					OFFSET 0.000000 -2.449906 4.627600 
				}
			}
		}
	}
}
MOTION
Frames: 8
Frame Time: 0.016667
-0.090572 49.988503 1.143923 -3.813190 -1.668726 2.168755 23.476564 -0.039063 0.000000 -20.257847 1.220689 0.273584 -2.505631 -0.449200 -0.527404 14.562127 -0.937431 -0.693586 1.972368 -1.689789 -0.009756 -77.196564 -2.508262 0.461242 -14.611959 1.551704 16.539721 -11.949644 20.068726 -4.160869 9.648380 -0.343434 -0.009627 85.757492 -9.913004 -30.474583 16.783054 -4.524978 61.139114 28.696405 -8.270306 -4.513826 -7.759491 1.082043 13.259665 19.437220 -1.546718 -1.857365 -10.081880 -15.102583 -15.040201 -7.818673 -1.415540 -4.169019 67.638046 -1.025676 3.994445 5.584904 -10.826706 12.991243 
0.011180 50.160099 3.085715 -4.170452 -2.495677 3.372320 23.432577 0.283160 -0.996081 -19.212845 2.626744 -0.723239 -2.591890 0.263642 -0.869132 15.207128 -0.761627 -0.888853 2.402257 -0.508222 -0.009757 -78.101654 -6.131635 6.034438 -16.089184 1.420232 15.044765 -11.700519 18.807667 -3.828794 9.638624 -0.294604 -0.009628 86.021187 -10.294498 -45.943722 15.453382 -5.022152 76.976082 27.220245 -7.287639 -3.734003 -5.520811 1.743824 11.890399 20.300304 -1.507738 -1.925673 -12.606948 -14.512890 -15.605732 -11.822933 -0.195471 -4.561617 65.630257 -0.884543 3.971940 1.494094 -11.514521 12.192255 
0.055157 50.253036 5.085644 -4.665242 -3.192489 4.674848 23.447042 0.283027 -2.021508 -18.369295 4.138965 -1.625323 -2.396935 1.015344 -1.347791 15.858483 -0.419828 -1.210977 2.998182 0.790505 -0.009886 -79.024101 -9.496151 11.215841 -18.294975 1.311629 13.760190 -11.707260 18.461472 -3.761262 9.589804 -0.245768 -0.009629 86.189743 -12.806680 -53.118618 16.554306 -5.104192 82.601456 26.209223 -7.189373 -3.536285 -3.161727 2.526488 10.483238 21.280043 -1.488328 -1.973953 -15.105959 -14.624094 -16.324205 -15.102899 0.927047 -4.587048 61.636024 -0.582274 3.875629 -3.723130 -11.327552 11.170609 
0.089582 50.297642 7.118246 -5.238844 -3.768438 5.989266 23.576523 0.146294 -2.919912 -17.928469 5.464200 -2.343831 -1.900341 1.815265 -2.032086 16.489506 0.156181 -1.699212 3.691740 1.962262 -0.010074 -79.221489 -12.141994 17.238100 -21.836693 1.118650 11.520669 -11.977731 18.492386 -3.857420 9.531219 -0.187164 -0.009631 86.488541 -16.385612 -54.210640 17.925770 -5.042030 78.416054 24.978535 -7.547463 -3.512367 -0.526881 3.296909 9.111362 21.876429 -1.465462 -2.049866 -17.064081 -14.778677 -16.914433 -17.429491 1.854710 -4.345021 56.011623 -0.249956 3.709930 -9.435361 -10.242218 10.266140 
0.107114 50.257160 9.199471 -5.858371 -4.126784 7.274191 23.790796 -0.175405 -3.750041 -17.701176 6.573390 -2.948421 -1.311972 2.623720 -2.844627 16.984650 0.907456 -2.324391 4.277797 2.665287 -0.010182 -78.605446 -14.226274 22.049580 -26.126209 0.865324 8.689062 -12.054286 18.163132 -3.807333 9.482415 -0.040671 -0.009632 86.817261 -19.689116 -54.885326 18.693213 -4.891850 71.892883 24.008162 -7.148966 -3.183903 2.154000 4.036519 7.804065 22.592115 -1.448218 -2.064640 -19.113560 -15.118217 -17.657328 -18.630760 2.616326 -3.612793 48.708782 0.189613 3.455393 -14.004531 -8.423565 9.941135 
0.125149 50.132248 11.323973 -6.493147 -4.279584 8.431229 24.050058 -0.593913 -4.443625 -17.702169 7.311268 -3.425456 -0.734133 3.439837 -3.766459 17.300154 1.735823 -3.048138 4.424310 2.831278 -0.010207 -77.447128 -15.662918 24.705645 -30.505386 0.542905 4.962608 -11.509747 17.186403 -3.451022 9.492237 0.291358 -0.009681 87.133133 -22.280106 -56.510994 18.753538 -4.721734 66.318977 24.121424 -6.311502 -2.829763 4.916787 4.742922 6.629158 23.357668 -1.423112 -2.060926 -21.066309 -15.768079 -18.505529 -18.741968 3.249821 -2.465861 40.349602 0.667942 3.056548 -17.659639 -7.148542 9.823946 
0.148699 49.937725 13.489613 -7.077273 -4.297305 9.391355 24.315001 -0.992332 -4.981242 -17.887194 7.649504 -3.782876 -0.200332 4.204496 -4.719394 17.408497 2.533394 -3.831716 4.082468 2.567664 -0.010169 -76.196037 -16.416309 25.252914 -34.426441 0.199896 1.176193 -10.641590 15.569468 -2.894844 9.658347 0.857737 -0.009772 87.505630 -24.344156 -58.189121 18.611126 -4.563826 62.183662 25.415230 -6.219831 -2.958244 7.643966 5.418921 5.707396 24.218132 -1.380365 -2.155800 -22.276443 -16.088068 -19.016348 -17.856934 3.847142 -0.581164 31.454052 1.077288 2.593022 -20.579811 -8.648364 8.891001 
0.175822 49.703133 15.693461 -7.595365 -4.269039 10.096109 24.534779 -1.293207 -5.333535 -18.204569 7.666769 -4.030034 0.329560 4.781578 -5.634702 17.324617 3.241290 -4.645592 3.447603 1.981835 -0.010080 -74.954430 -16.411865 24.690109 -37.939770 -0.164099 -2.974847 -9.882154 14.363138 -2.472235 9.990508 1.629165 -0.009891 87.876144 -25.755821 -59.878075 18.406761 -4.489439 60.179409 26.748398 -7.116651 -3.595767 10.181438 6.112184 5.038443 25.323586 -1.345862 -2.225794 -22.237297 -16.423630 -19.127119 -16.003010 3.875931 -2.103264 22.965055 1.424780 2.079758 -22.292587 -8.540997 8.676778 
